  0
SECTION
  2
HEADER
  9
$ACADVER
  1
AC1024
  9
$ACADMAINTVER
 70
6
  9
$DWGCODEPAGE
  3
ANSI_1252
  9
$LASTSAVEDBY
  1
ezdxf
  9
$INSBASE
 10
0.0
 20
0.0
 30
0.0
  9
$EXTMIN
 10
1e+20
 20
1e+20
 30
1e+20
  9
$EXTMAX
 10
-1e+20
 20
-1e+20
 30
-1e+20
  9
$LIMMIN
 10
0.0
 20
0.0
  9
$LIMMAX
 10
420.0
 20
297.0
  9
$ORTHOMODE
 70
0
  9
$REGENMODE
 70
1
  9
$FILLMODE
 70
1
  9
$QTEXTMODE
 70
0
  9
$MIRRTEXT
 70
1
  9
$LTSCALE
 40
1.0
  9
$ATTMODE
 70
1
  9
$TEXTSIZE
 40
2.5
  9
$TRACEWID
 40
1.0
  9
$TEXTSTYLE
  7
Standard
  9
$CLAYER
  8
0
  9
$CELTYPE
  6
ByLayer
  9
$CECOLOR
 62
256
  9
$CELTSCALE
 40
1.0
  9
$DISPSILH
 70
0
  9
$DIMSCALE
 40
1.0
  9
$DIMASZ
 40
2.5
  9
$DIMEXO
 40
0.625
  9
$DIMDLI
 40
3.75
  9
$DIMRND
 40
0.0
  9
$DIMDLE
 40
0.0
  9
$DIMEXE
 40
1.25
  9
$DIMTP
 40
0.0
  9
$DIMTM
 40
0.0
  9
$DIMTXT
 40
2.5
  9
$DIMCEN
 40
2.5
  9
$DIMTSZ
 40
0.0
  9
$DIMTOL
 70
0
  9
$DIMLIM
 70
0
  9
$DIMTIH
 70
0
  9
$DIMTOH
 70
0
  9
$DIMSE1
 70
0
  9
$DIMSE2
 70
0
  9
$DIMTAD
 70
1
  9
$DIMZIN
 70
8
  9
$DIMBLK
  1

  9
$DIMASO
 70
1
  9
$DIMSHO
 70
1
  9
$DIMPOST
  1

  9
$DIMAPOST
  1

  9
$DIMALT
 70
0
  9
$DIMALTD
 70
3
  9
$DIMALTF
 40
0.03937007874
  9
$DIMLFAC
 40
1.0
  9
$DIMTOFL
 70
1
  9
$DIMTVP
 40
0.0
  9
$DIMTIX
 70
0
  9
$DIMSOXD
 70
0
  9
$DIMSAH
 70
0
  9
$DIMBLK1
  1

  9
$DIMBLK2
  1

  9
$DIMSTYLE
  2
ISO-25
  9
$DIMCLRD
 70
0
  9
$DIMCLRE
 70
0
  9
$DIMCLRT
 70
0
  9
$DIMTFAC
 40
1.0
  9
$DIMGAP
 40
0.625
  9
$DIMJUST
 70
0
  9
$DIMSD1
 70
0
  9
$DIMSD2
 70
0
  9
$DIMTOLJ
 70
0
  9
$DIMTZIN
 70
8
  9
$DIMALTZ
 70
0
  9
$DIMALTTZ
 70
0
  9
$DIMUPT
 70
0
  9
$DIMDEC
 70
2
  9
$DIMTDEC
 70
2
  9
$DIMALTU
 70
2
  9
$DIMALTTD
 70
3
  9
$DIMTXSTY
  7
Standard
  9
$DIMAUNIT
 70
0
  9
$DIMADEC
 70
0
  9
$DIMALTRND
 40
0.0
  9
$DIMAZIN
 70
0
  9
$DIMDSEP
 70
44
  9
$DIMATFIT
 70
3
  9
$DIMFRAC
 70
0
  9
$DIMLDRBLK
  1

  9
$DIMLUNIT
 70
2
  9
$DIMLWD
 70
-2
  9
$DIMLWE
 70
-2
  9
$DIMTMOVE
 70
0
  9
$DIMFXL
 40
1.0
  9
$DIMFXLON
 70
0
  9
$DIMJOGANG
 40
0.785398163397
  9
$DIMTFILL
 70
0
  9
$DIMTFILLCLR
 70
0
  9
$DIMARCSYM
 70
0
  9
$DIMLTYPE
  6

  9
$DIMLTEX1
  6

  9
$DIMLTEX2
  6

  9
$DIMTXTDIRECTION
 70
0
  9
$LUNITS
 70
2
  9
$LUPREC
 70
4
  9
$SKETCHINC
 40
1.0
  9
$FILLETRAD
 40
10.0
  9
$AUNITS
 70
0
  9
$AUPREC
 70
2
  9
$MENU
  1
.
  9
$ELEVATION
 40
0.0
  9
$PELEVATION
 40
0.0
  9
$THICKNESS
 40
0.0
  9
$LIMCHECK
 70
0
  9
$CHAMFERA
 40
0.0
  9
$CHAMFERB
 40
0.0
  9
$CHAMFERC
 40
0.0
  9
$CHAMFERD
 40
0.0
  9
$SKPOLY
 70
0
  9
$TDCREATE
 40
2460995.6611226853
  9
$TDUCREATE
 40
2458532.153996898
  9
$TDUPDATE
 40
2460995.6611226853
  9
$TDUUPDATE
 40
2458532.1544311
  9
$TDINDWG
 40
0.0
  9
$TDUSRTIMER
 40
0.0
  9
$USRTIMER
 70
1
  9
$ANGBASE
 50
0.0
  9
$ANGDIR
 70
0
  9
$PDMODE
 70
0
  9
$PDSIZE
 40
0.0
  9
$PLINEWID
 40
0.0
  9
$SPLFRAME
 70
0
  9
$SPLINETYPE
 70
6
  9
$SPLINESEGS
 70
8
  9
$HANDSEED
  5
46
  9
$SURFTAB1
 70
6
  9
$SURFTAB2
 70
6
  9
$SURFTYPE
 70
6
  9
$SURFU
 70
6
  9
$SURFV
 70
6
  9
$UCSBASE
  2

  9
$UCSNAME
  2

  9
$UCSORG
 10
0.0
 20
0.0
 30
0.0
  9
$UCSXDIR
 10
1.0
 20
0.0
 30
0.0
  9
$UCSYDIR
 10
0.0
 20
1.0
 30
0.0
  9
$UCSORTHOREF
  2

  9
$UCSORTHOVIEW
 70
0
  9
$UCSORGTOP
 10
0.0
 20
0.0
 30
0.0
  9
$UCSORGBOTTOM
 10
0.0
 20
0.0
 30
0.0
  9
$UCSORGLEFT
 10
0.0
 20
0.0
 30
0.0
  9
$UCSORGRIGHT
 10
0.0
 20
0.0
 30
0.0
  9
$UCSORGFRONT
 10
0.0
 20
0.0
 30
0.0
  9
$UCSORGBACK
 10
0.0
 20
0.0
 30
0.0
  9
$PUCSBASE
  2

  9
$PUCSNAME
  2

  9
$PUCSORG
 10
0.0
 20
0.0
 30
0.0
  9
$PUCSXDIR
 10
1.0
 20
0.0
 30
0.0
  9
$PUCSYDIR
 10
0.0
 20
1.0
 30
0.0
  9
$PUCSORTHOREF
  2

  9
$PUCSORTHOVIEW
 70
0
  9
$PUCSORGTOP
 10
0.0
 20
0.0
 30
0.0
  9
$PUCSORGBOTTOM
 10
0.0
 20
0.0
 30
0.0
  9
$PUCSORGLEFT
 10
0.0
 20
0.0
 30
0.0
  9
$PUCSORGRIGHT
 10
0.0
 20
0.0
 30
0.0
  9
$PUCSORGFRONT
 10
0.0
 20
0.0
 30
0.0
  9
$PUCSORGBACK
 10
0.0
 20
0.0
 30
0.0
  9
$USERI1
 70
0
  9
$USERI2
 70
0
  9
$USERI3
 70
0
  9
$USERI4
 70
0
  9
$USERI5
 70
0
  9
$USERR1
 40
0.0
  9
$USERR2
 40
0.0
  9
$USERR3
 40
0.0
  9
$USERR4
 40
0.0
  9
$USERR5
 40
0.0
  9
$WORLDVIEW
 70
1
  9
$SHADEDGE
 70
3
  9
$SHADEDIF
 70
70
  9
$TILEMODE
 70
1
  9
$MAXACTVP
 70
64
  9
$PINSBASE
 10
0.0
 20
0.0
 30
0.0
  9
$PLIMCHECK
 70
0
  9
$PEXTMIN
 10
1e+20
 20
1e+20
 30
1e+20
  9
$PEXTMAX
 10
-1e+20
 20
-1e+20
 30
-1e+20
  9
$PLIMMIN
 10
0.0
 20
0.0
  9
$PLIMMAX
 10
420.0
 20
297.0
  9
$UNITMODE
 70
0
  9
$VISRETAIN
 70
1
  9
$PLINEGEN
 70
0
  9
$PSLTSCALE
 70
1
  9
$TREEDEPTH
 70
3020
  9
$CMLSTYLE
  2
Standard
  9
$CMLJUST
 70
0
  9
$CMLSCALE
 40
20.0
  9
$PROXYGRAPHICS
 70
1
  9
$MEASUREMENT
 70
1
  9
$CELWEIGHT
370
-1
  9
$ENDCAPS
280
0
  9
$JOINSTYLE
280
0
  9
$LWDISPLAY
290
0
  9
$INSUNITS
 70
4
  9
$HYPERLINKBASE
  1

  9
$STYLESHEET
  1

  9
$XEDIT
290
1
  9
$CEPSNTYPE
380
0
  9
$PSTYLEMODE
290
1
  9
$FINGERPRINTGUID
  2
{F4D40765-2008-427A-A614-EC2489B90612}
  9
$VERSIONGUID
  2
{414DE56A-B16C-4765-AE3B-8E28247D47B9}
  9
$EXTNAMES
290
1
  9
$PSVPSCALE
 40
0.0
  9
$OLESTARTUP
290
0
  9
$SORTENTS
280
127
  9
$INDEXCTL
280
0
  9
$HIDETEXT
280
1
  9
$XCLIPFRAME
280
1
  9
$HALOGAP
280
0
  9
$OBSCOLOR
 70
257
  9
$OBSLTYPE
280
0
  9
$INTERSECTIONDISPLAY
280
0
  9
$INTERSECTIONCOLOR
 70
257
  9
$DIMASSOC
280
2
  9
$PROJECTNAME
  1

  9
$CAMERADISPLAY
290
0
  9
$LENSLENGTH
 40
50.0
  9
$CAMERAHEIGHT
 40
0.0
  9
$STEPSPERSEC
 40
24.0
  9
$STEPSIZE
 40
100.0
  9
$3DDWFPREC
 40
2.0
  9
$PSOLWIDTH
 40
0.005
  9
$PSOLHEIGHT
 40
0.08
  9
$LOFTANG1
 40
1.570796326795
  9
$LOFTANG2
 40
1.570796326795
  9
$LOFTMAG1
 40
0.0
  9
$LOFTMAG2
 40
0.0
  9
$LOFTPARAM
 70
7
  9
$LOFTNORMALS
280
1
  9
$LATITUDE
 40
37.795
  9
$LONGITUDE
 40
-122.394
  9
$NORTHDIRECTION
 40
0.0
  9
$TIMEZONE
 70
-8000
  9
$LIGHTGLYPHDISPLAY
280
1
  9
$TILEMODELIGHTSYNCH
280
1
  9
$CMATERIAL
347
20
  9
$SOLIDHIST
280
0
  9
$SHOWHIST
280
1
  9
$DWFFRAME
280
2
  9
$DGNFRAME
280
2
  9
$REALWORLDSCALE
290
1
  9
$INTERFERECOLOR
 62
256
  9
$CSHADOW
280
0
  9
$SHADOWPLANELOCATION
 40
0.0
  0
ENDSEC
  0
SECTION
  2
CLASSES
  0
CLASS
  1
ACDBDICTIONARYWDFLT
  2
AcDbDictionaryWithDefault
  3
ObjectDBX Classes
 90
0
 91
0
280
0
281
0
  0
CLASS
  1
SUN
  2
AcDbSun
  3
SCENEOE
 90
1153
 91
0
280
0
281
0
  0
CLASS
  1
VISUALSTYLE
  2
AcDbVisualStyle
  3
ObjectDBX Classes
 90
4095
 91
0
280
0
281
0
  0
CLASS
  1
MATERIAL
  2
AcDbMaterial
  3
ObjectDBX Classes
 90
1153
 91
0
280
0
281
0
  0
CLASS
  1
SCALE
  2
AcDbScale
  3
ObjectDBX Classes
 90
1153
 91
0
280
0
281
0
  0
CLASS
  1
TABLESTYLE
  2
AcDbTableStyle
  3
ObjectDBX Classes
 90
4095
 91
0
280
0
281
0
  0
CLASS
  1
MLEADERSTYLE
  2
AcDbMLeaderStyle
  3
ACDB_MLEADERSTYLE_CLASS
 90
4095
 91
0
280
0
281
0
  0
CLASS
  1
DICTIONARYVAR
  2
AcDbDictionaryVar
  3
ObjectDBX Classes
 90
0
 91
0
280
0
281
0
  0
CLASS
  1
CELLSTYLEMAP
  2
AcDbCellStyleMap
  3
ObjectDBX Classes
 90
1152
 91
0
280
0
281
0
  0
CLASS
  1
MENTALRAYRENDERSETTINGS
  2
AcDbMentalRayRenderSettings
  3
SCENEOE
 90
1024
 91
0
280
0
281
0
  0
CLASS
  1
ACDBDETAILVIEWSTYLE
  2
AcDbDetailViewStyle
  3
ObjectDBX Classes
 90
1025
 91
0
280
0
281
0
  0
CLASS
  1
ACDBSECTIONVIEWSTYLE
  2
AcDbSectionViewStyle
  3
ObjectDBX Classes
 90
1025
 91
0
280
0
281
0
  0
CLASS
  1
RASTERVARIABLES
  2
AcDbRasterVariables
  3
ISM
 90
0
 91
0
280
0
281
0
  0
CLASS
  1
LAYOUT
  2
AcDbLayout
  3
ObjectDBX Classes
 90
0
 91
0
280
0
281
0
  0
CLASS
  1
ACDBPLACEHOLDER
  2
AcDbPlaceHolder
  3
ObjectDBX Classes
 90
0
 91
0
280
0
281
0
  0
ENDSEC
  0
SECTION
  2
TABLES
  0
TABLE
  2
VPORT
  5
8
330
0
100
AcDbSymbolTable
 70
1
  0
VPORT
  5
23
330
8
100
AcDbSymbolTableRecord
100
AcDbViewportTableRecord
  2
*Active
 70
0
 10
0.0
 20
0.0
 11
1.0
 21
1.0
 12
0.0
 22
0.0
 13
0.0
 23
0.0
 14
0.5
 24
0.5
 15
0.5
 25
0.5
 16
0.0
 26
0.0
 36
1.0
 17
0.0
 27
0.0
 37
0.0
 40
1000.0
 41
1.34
 42
50.0
 43
0.0
 44
0.0
 50
0.0
 51
0.0
 71
0
 72
1000
 73
1
 74
3
 75
0
 76
0
 77
0
 78
0
281
0
 65
0
146
0.0
  0
ENDTAB
  0
TABLE
  2
LTYPE
  5
2
330
0
100
AcDbSymbolTable
 70
3
  0
LTYPE
  5
24
330
2
100
AcDbSymbolTableRecord
100
AcDbLinetypeTableRecord
  2
ByBlock
 70
0
  3

 72
65
 73
0
 40
0.0
  0
LTYPE
  5
25
330
2
100
AcDbSymbolTableRecord
100
AcDbLinetypeTableRecord
  2
ByLayer
 70
0
  3

 72
65
 73
0
 40
0.0
  0
LTYPE
  5
26
330
2
100
AcDbSymbolTableRecord
100
AcDbLinetypeTableRecord
  2
Continuous
 70
0
  3

 72
65
 73
0
 40
0.0
  0
ENDTAB
  0
TABLE
  2
LAYER
  5
1
330
0
100
AcDbSymbolTable
 70
2
  0
LAYER
  5
27
330
1
100
AcDbSymbolTableRecord
100
AcDbLayerTableRecord
  2
0
 70
0
 62
7
  6
Continuous
370
-3
390
13
347
21
  0
LAYER
  5
28
330
1
100
AcDbSymbolTableRecord
100
AcDbLayerTableRecord
  2
Defpoints
 70
0
 62
7
  6
Continuous
290
0
370
-3
390
13
347
21
  0
ENDTAB
  0
TABLE
  2
STYLE
  5
5
330
0
100
AcDbSymbolTable
 70
1
  0
STYLE
  5
29
330
5
100
AcDbSymbolTableRecord
100
AcDbTextStyleTableRecord
  2
Standard
 70
0
 40
0.0
 41
1.0
 50
0.0
 71
0
 42
2.5
  3
txt
  4

  0
ENDTAB
  0
TABLE
  2
VIEW
  5
7
330
0
100
AcDbSymbolTable
 70
0
  0
ENDTAB
  0
TABLE
  2
UCS
  5
6
330
0
100
AcDbSymbolTable
 70
0
  0
ENDTAB
  0
TABLE
  2
APPID
  5
3
330
0
100
AcDbSymbolTable
 70
3
  0
APPID
  5
2A
330
3
100
AcDbSymbolTableRecord
100
AcDbRegAppTableRecord
  2
ACAD
 70
0
  0
APPID
  5
43
330
3
100
AcDbSymbolTableRecord
100
AcDbRegAppTableRecord
  2
HATCHBACKGROUNDCOLOR
 70
0
  0
APPID
  5
44
330
3
100
AcDbSymbolTableRecord
100
AcDbRegAppTableRecord
  2
EZDXF
 70
0
  0
ENDTAB
  0
TABLE
  2
DIMSTYLE
  5
4
330
0
100
AcDbSymbolTable
 70
1
100
AcDbDimStyleTable
  0
DIMSTYLE
105
2B
330
4
100
AcDbSymbolTableRecord
100
AcDbDimStyleTableRecord
  2
Standard
 70
0
 40
1.0
 41
2.5
 42
0.625
 43
3.75
 44
1.25
 45
0.0
 46
0.0
 47
0.0
 48
0.0
 49
2.5
140
2.5
141
2.5
142
0.0
143
0.03937007874
144
1.0
145
0.0
146
1.0
147
0.625
148
0.0
 69
0
 70
0
 71
0
 72
0
 73
0
 74
0
 75
0
 76
0
 77
1
 78
8
 79
3
170
0
171
3
172
1
173
0
174
0
175
0
176
0
177
0
178
0
179
2
271
2
272
2
273
2
274
3
275
0
276
0
277
2
278
44
279
0
280
0
281
0
282
0
283
0
284
8
285
0
286
0
288
0
289
3
290
0
371
-2
372
-2
  0
ENDTAB
  0
TABLE
  2
BLOCK_RECORD
  5
9
330
0
100
AcDbSymbolTable
 70
2
  0
BLOCK_RECORD
  5
17
330
9
100
AcDbSymbolTableRecord
100
AcDbBlockTableRecord
  2
*Model_Space
340
1A
 70
0
280
1
281
0
  0
BLOCK_RECORD
  5
1B
330
9
100
AcDbSymbolTableRecord
100
AcDbBlockTableRecord
  2
*Paper_Space
340
1E
 70
0
280
1
281
0
  0
ENDTAB
  0
ENDSEC
  0
SECTION
  2
BLOCKS
  0
BLOCK
  5
18
330
17
100
AcDbEntity
  8
0
100
AcDbBlockBegin
  2
*Model_Space
 70
0
 10
0.0
 20
0.0
 30
0.0
  3
*Model_Space
  1

  0
ENDBLK
  5
19
330
17
100
AcDbEntity
  8
0
100
AcDbBlockEnd
  0
BLOCK
  5
1C
330
1B
100
AcDbEntity
  8
0
100
AcDbBlockBegin
  2
*Paper_Space
 70
0
 10
0.0
 20
0.0
 30
0.0
  3
*Paper_Space
  1

  0
ENDBLK
  5
1D
330
1B
100
AcDbEntity
  8
0
100
AcDbBlockEnd
  0
ENDSEC
  0
SECTION
  2
ENTITIES
  0
LWPOLYLINE
  5
2F
330
17
100
AcDbEntity
  8
0
100
AcDbPolyline
 90
3
 70
0
 10
1.05374e-07
 20
-0.0
 10
1452.0007839748341
 20
-0.0
 10
1452.0007839748341
 20
-868.0004685940157
  0
LWPOLYLINE
  5
30
330
17
100
AcDbEntity
  8
0
100
AcDbPolyline
 90
2
 70
0
 10
1.05374e-07
 20
-868.0004685940157
 10
1.05374e-07
 20
-0.0
  0
LWPOLYLINE
  5
31
330
17
100
AcDbEntity
  8
0
100
AcDbPolyline
 90
4
 70
0
 10
1084.000585308194
 20
-411.00022188040504
 10
983.0005307828391
 20
-696.00037573908
 10
1420.000766699474
 20
-234.00012632607002
 10
855.0004616813991
 20
-187.00010095288502
  0
LWPOLYLINE
  5
32
330
17
100
AcDbEntity
  8
0
100
AcDbPolyline
 90
25
 70
0
 10
1.05374e-07
 20
-196.70450619185385
 10
47.293425636952456
 20
-194.4125049545062
 10
75.66314095247685
 20
-192.41780387765743
 10
98.75515341880852
 20
-190.20630268376812
 10
117.34046345217565
 20
-187.7671013669538
 10
131.9902713609434
 20
-185.08469991884672
 10
137.9753745920296
 20
-183.64599914215736
 10
147.47067971811475
 20
-180.55849747535504
 10
151.0429816466388
 20
-178.90239658130116
 10
153.86368316940778
 20
-177.16589564384296
 10
155.95018429581523
 20
-175.34449466055108
 10
157.31488503255534
 20
-173.43289362856424
 10
157.96568538389297
 20
-171.42559254491331
 10
157.90558535144768
 20
-169.31629140619717
 10
157.13348493462567
 20
-167.09819020874477
 10
155.64338413018774
 20
-164.7634889483453
 10
153.42468293241143
 20
-162.30398762057195
 10
150.462181333091
 20
-159.71018622029607
 10
142.21827688258037
 20
-154.07718317929283
 10
136.87917400024054
 20
-151.01358152539305
 10
123.57476681779367
 20
-144.31997791181962
 10
96.24545206393442
 20
-132.58927157894257
 10
72.25073911027565
 20
-123.36796660077766
 10
42.66862314023105
 20
-112.7318608588259
 10
1.05374e-07
 20
-98.24395303746063
  0
LWPOLYLINE
  5
33
330
17
100
AcDbEntity
  8
0
100
AcDbPolyline
 90
34
 70
0
 10
1452.0007839748341
 20
-481.92686017048464
 10
1290.3992967335103
 20
-434.5132345740156
 10
1148.987620391751
 20
-392.1233116896162
 10
1050.5443672466972
 20
-361.63359522959917
 10
1000.8541404211943
 20
-345.6633866080069
 10
960.5680186725418
 20
-332.220779350952
 10
927.7779009706423
 20
-320.75427316070466
 10
901.1136865758407
 20
-310.862667820675
 10
879.5753749482817
 20
-302.24706316950017
 10
870.4898700434292
 20
-298.3445610627161
 10
855.3207618543146
 20
-291.23365722386114
 10
843.7822556251976
 20
-284.9230538170522
 10
835.5383511746871
 20
-279.290050776049
 10
832.5758495753666
 20
-276.69624937577305
 10
830.3571483775904
 20
-274.2367480479997
 10
828.8670475731524
 20
-271.9020467876002
 10
828.0949471563305
 20
-269.68394559014786
 10
828.0348471238851
 20
-267.5746444514317
 10
828.6856474752227
 20
-265.5673433677808
 10
830.0503482119628
 20
-263.65574233579395
 10
832.1368493383703
 20
-261.83434135250207
 10
834.9575508611392
 20
-260.09784041504383
 10
838.5298527896633
 20
-258.44173952099
 10
848.0251579157485
 20
-255.35423785418766
 10
860.8725648514817
 20
-252.54273633638533
 10
877.4290737895909
 20
-249.98423495516633
 10
898.1851849948754
 20
-247.66053370070526
 10
923.8047988257445
 20
-245.55843256587605
 10
955.1840157659625
 20
-243.6697315462519
 10
993.5417364735587
 20
-241.99143064021325
 10
1040.5575618552734
 20
-240.52732984981157
 10
1132.7540116279608
 20
-238.7616288965896
 10
1263.049781968746
 20
-237.60382827154547
 10
1452.0007839748341
 20
-237.27302809296143
  0
LWPOLYLINE
  5
34
330
17
100
AcDbEntity
  8
0
100
AcDbPolyline
 90
28
 70
0
 10
1452.0007839748341
 20
-420.02142675054495
 10
1305.995205153035
 20
-454.3652452912171
 10
1130.249710276002
 20
-496.158767853647
 10
1004.9599426377309
 20
-526.3613841586716
 10
911.0932919633776
 20
-549.3632965763625
 10
779.7368210499683
 20
-582.5102144708821
 10
692.090173733513
 20
-605.7842270354673
 10
629.3366398557224
 20
-623.5464366244798
 10
604.166126267302
 20
-631.09004069693
 10
562.5617038069587
 20
-644.3678478650166
 10
545.1481944061936
 20
-650.3361510870333
 10
515.3839783378414
 20
-661.3498570328344
 10
502.5430714056173
 20
-666.5187598232909
 10
480.0361592551548
 20
-676.4193651681793
 10
460.88854891822723
 20
-685.9842703318383
 10
444.3185399728299
 20
-695.4578754462086
 10
429.7544321103277
 20
-705.0494806242818
 10
416.76422509750324
 20
-714.9529859707359
 10
405.01171875285735
 20
-725.3617915899787
 10
394.2263129303052
 20
-736.4820975933283
 10
384.1816075076237
 20
-748.5473041067868
 10
374.6798023780295
 20
-761.8341112797322
 10
365.53779744267507
 20
-776.6847192969028
 10
356.57519260417064
 20
-793.5364283943773
 10
347.600087758918
 20
-812.9676388844078
 10
343.04078529755714
 20
-823.8859447787066
 10
333.6181802107194
 20
-848.759558206844
 10
327.05967667012277
 20
-868.0004685940157
  0
LWPOLYLINE
  5
35
330
17
100
AcDbEntity
  8
0
100
AcDbPolyline
 90
30
 70
0
 10
463.59715038047847
 20
-0.0
 10
443.24923939556294
 20
-95.60825161456481
 10
414.13312367709074
 20
-227.91652304180815
 10
393.5492125647694
 20
-316.23367072023615
 10
385.1837080486124
 20
-350.2713890956587
 10
370.9429003606453
 20
-404.89021858189096
 10
364.72409700339506
 20
-427.1653306072151
 10
353.5097909492991
 20
-464.46885074569605
 10
348.35218816494296
 20
-480.26955927578297
 10
338.6370829201977
 20
-507.54877400259545
 10
333.9884804106277
 20
-519.4293804163967
 10
324.9270755187856
 20
-540.428991753136
 10
315.98357069059244
 20
-558.4871015018914
 10
306.9541658160257
 20
-574.2760100256081
 10
297.6546607956441
 20
-588.296917594861
 10
287.90495553221984
 20
-600.9348244174945
 10
277.5161499237742
 20
-612.4961306589202
 10
266.27774385666777
 20
-623.2335364555593
 10
253.9437371980962
 20
-633.3650419251001
 10
240.21372978588704
 20
-643.0887471744882
 10
224.70812141511135
 20
-652.5965523073215
 10
216.14061678990365
 20
-657.3310548632651
 10
196.99300645297603
 20
-666.8959600269241
 10
174.48609430251352
 20
-676.7965653718126
 10
147.51657974289412
 20
-687.3409710642596
 10
131.88097130193728
 20
-692.9792741081241
 10
94.93765135791206
 20
-705.3285807749555
 10
72.86303944082887
 20
-712.2253844982274
 10
47.69252585240859
 20
-719.7688885706236
 10
1.05374e-07
 20
-733.3374958957002
  0
LWPOLYLINE
  5
36
330
17
100
AcDbEntity
  8
0
100
AcDbPolyline
 90
29
 70
0
 10
529.0002856886691
 20
-390.00021054345
 10
528.60738547656
 20
-391.9464115941158
 10
527.5357848980514
 20
-393.53571245210736
 10
525.9464840400599
 20
-394.607313030616
 10
524.0002829893941
 20
-395.000213242725
 10
522.0540819387282
 20
-394.607313030616
 10
520.4647810807368
 20
-393.53571245210736
 10
519.3931805022281
 20
-391.9464115941158
 10
519.0002802901191
 20
-390.00021054345
 10
519.3931805022281
 20
-388.05400949278425
 10
520.4647810807368
 20
-386.46470863479266
 10
522.0540819387282
 20
-385.39310805628406
 10
524.0002829893941
 20
-385.000207844175
 10
526.298084229873
 20
-385.5583081454681
 10
528.2511852842637
 20
-387.3664091215799
 10
528.9836856797075
 20
-389.59011032205547
 10
528.60738547656
 20
-391.9464115941158
 10
526.9531845835319
 20
-394.0355127219269
 10
524.8112834272165
 20
-394.9348132074185
 10
522.4198821362072
 20
-394.74531310511594
 10
520.4647810807368
 20
-393.53571245210736
 10
519.2551804277282
 20
-391.58061139663687
 10
519.0656803254255
 20
-389.18921010562764
 10
519.9649808109172
 20
-387.0473089493122
 10
522.0540819387282
 20
-385.39310805628406
 10
524.4103832107887
 20
-385.0168078531366
 10
526.6340844112641
 20
-385.7493082485804
 10
528.4421853873761
 20
-387.7024093029712
 10
529.0002856886691
 20
-390.00021054345
  0
LWPOLYLINE
  5
37
330
17
100
AcDbEntity
  8
0
100
AcDbPolyline
 90
29
 70
0
 10
1089.000588007469
 20
-411.00022188040504
 10
1088.60768779536
 20
-412.9464229310708
 10
1087.5360872168515
 20
-414.5357237890624
 10
1085.94678635886
 20
-415.607324367571
 10
1084.000585308194
 20
-416.00022457968004
 10
1082.0543842575282
 20
-415.607324367571
 10
1080.4650833995368
 20
-414.5357237890624
 10
1079.393482821028
 20
-412.9464229310708
 10
1079.000582608919
 20
-411.00022188040504
 10
1079.393482821028
 20
-409.0540208297392
 10
1080.4650833995368
 20
-407.4647199717476
 10
1082.0543842575282
 20
-406.39311939323903
 10
1084.000585308194
 20
-406.00021918113003
 10
1086.298386548673
 20
-406.5583194824231
 10
1088.2514876030637
 20
-408.3664204585349
 10
1088.9839879985075
 20
-410.5901216590105
 10
1088.60768779536
 20
-412.9464229310708
 10
1086.9534869023319
 20
-415.0355240588819
 10
1084.8115857460164
 20
-415.9348245443735
 10
1082.4201844550073
 20
-415.74532444207097
 10
1080.4650833995368
 20
-414.5357237890624
 10
1079.255482746528
 20
-412.58062273359184
 10
1079.0659826442256
 20
-410.1892214425826
 10
1079.9652831297171
 20
-408.04732028626717
 10
1082.0543842575282
 20
-406.39311939323903
 10
1084.4106855295886
 20
-406.0168191900916
 10
1086.6343867300643
 20
-406.7493195855354
 10
1088.442487706176
 20
-408.7024206399262
 10
1089.000588007469
 20
-411.00022188040504
  0
LWPOLYLINE
  5
38
330
17
100
AcDbEntity
  8
0
100
AcDbPolyline
 90
29
 70
0
 10
988.0005334821141
 20
-696.00037573908
 10
987.607633270005
 20
-697.9465767897458
 10
986.5360326914964
 20
-699.5358776477374
 10
984.9467318335048
 20
-700.6074782262459
 10
983.0005307828391
 20
-701.000378438355
 10
981.0543297321733
 20
-700.6074782262459
 10
979.4650288741818
 20
-699.5358776477374
 10
978.3934282956732
 20
-697.9465767897458
 10
978.0005280835641
 20
-696.00037573908
 10
978.3934282956732
 20
-694.0541746884143
 10
979.4650288741818
 20
-692.4648738304227
 10
981.0543297321733
 20
-691.3932732519141
 10
983.0005307828391
 20
-691.000373039805
 10
985.2983320233179
 20
-691.5584733410981
 10
987.2514330777087
 20
-693.3665743172099
 10
987.9839334731524
 20
-695.5902755176854
 10
987.607633270005
 20
-697.9465767897458
 10
985.9534323769769
 20
-700.0356779175569
 10
983.8115312206615
 20
-700.9349784030486
 10
981.4201299296521
 20
-700.745478300746
 10
979.4650288741818
 20
-699.5358776477374
 10
978.2554282211731
 20
-697.580776592267
 10
978.0659281188706
 20
-695.1893753012575
 10
978.9652286043622
 20
-693.0474741449422
 10
981.0543297321733
 20
-691.3932732519141
 10
983.4106310042337
 20
-691.0169730487667
 10
985.6343322047092
 20
-691.7494734442104
 10
987.442433180821
 20
-693.7025744986012
 10
988.0005334821141
 20
-696.00037573908
  0
LWPOLYLINE
  5
39
330
17
100
AcDbEntity
  8
0
100
AcDbPolyline
 90
29
 70
0
 10
1425.000769398749
 20
-234.00012632607002
 10
1424.60786918664
 20
-235.9463273767358
 10
1423.5362686081314
 20
-237.53562823472737
 10
1421.94696775014
 20
-238.607228813236
 10
1420.000766699474
 20
-239.00012902534502
 10
1418.0545656488082
 20
-238.607228813236
 10
1416.4652647908167
 20
-237.53562823472737
 10
1415.3936642123083
 20
-235.9463273767358
 10
1415.000764000199
 20
-234.00012632607002
 10
1415.3936642123083
 20
-232.0539252754042
 10
1416.4652647908167
 20
-230.46462441741264
 10
1418.0545656488082
 20
-229.39302383890404
 10
1420.000766699474
 20
-229.00012362679502
 10
1422.298567939953
 20
-229.55822392808807
 10
1424.2516689943436
 20
-231.3663249041999
 10
1424.9841693897877
 20
-233.59002610467547
 10
1424.60786918664
 20
-235.9463273767358
 10
1422.9536682936118
 20
-238.0354285045469
 10
1420.8117671372963
 20
-238.93472899003848
 10
1418.4203658462873
 20
-238.74522888773598
 10
1416.4652647908167
 20
-237.53562823472737
 10
1415.255664137808
 20
-235.58052717925685
 10
1415.0661640355056
 20
-233.1891258882476
 10
1415.9654645209973
 20
-231.04722473193218
 10
1418.0545656488082
 20
-229.39302383890404
 10
1420.4108669208688
 20
-229.01672363575662
 10
1422.6345681213443
 20
-229.74922403120038
 10
1424.442669097456
 20
-231.70232508559118
 10
1425.000769398749
 20
-234.00012632607002
  0
LWPOLYLINE
  5
3A
330
17
100
AcDbEntity
  8
0
100
AcDbPolyline
 90
29
 70
0
 10
860.0004643806741
 20
-187.00010095288502
 10
859.607564168565
 20
-188.9463020035508
 10
858.5359635900564
 20
-190.53560286154237
 10
856.9466627320649
 20
-191.60720344005097
 10
855.0004616813991
 20
-192.00010365216002
 10
853.0542606307333
 20
-191.60720344005097
 10
851.4649597727417
 20
-190.53560286154237
 10
850.3933591942332
 20
-188.9463020035508
 10
850.0004589821241
 20
-187.00010095288502
 10
850.3933591942332
 20
-185.0538999022192
 10
851.4649597727417
 20
-183.46459904422764
 10
853.0542606307333
 20
-182.39299846571905
 10
855.0004616813991
 20
-182.00009825361002
 10
857.298262921878
 20
-182.55819855490307
 10
859.2513639762687
 20
-184.3662995310149
 10
859.9838643717125
 20
-186.59000073149048
 10
859.607564168565
 20
-188.9463020035508
 10
857.953363275537
 20
-191.0354031313619
 10
855.8114621192216
 20
-191.93470361685348
 10
853.4200608282122
 20
-191.74520351455098
 10
851.4649597727417
 20
-190.53560286154237
 10
850.2553591197332
 20
-188.58050180607185
 10
850.0658590174305
 20
-186.1891005150626
 10
850.9651595029222
 20
-184.04719935874718
 10
853.0542606307333
 20
-182.39299846571905
 10
855.4105619027937
 20
-182.01669826257162
 10
857.6342631032692
 20
-182.7491986580154
 10
859.442364079381
 20
-184.7022997124062
 10
860.0004643806741
 20
-187.00010095288502
  0
LWPOLYLINE
  5
3B
330
17
100
AcDbEntity
  8
0
100
AcDbPolyline
 90
29
 70
0
 10
160.000086482174
 20
-171.000092315205
 10
159.60718627006497
 20
-172.94629336587082
 10
158.53558569155638
 20
-174.53559422386238
 10
156.94628483356482
 20
-175.60719480237097
 10
155.000083782899
 20
-176.00009501448
 10
153.0538827322332
 20
-175.60719480237097
 10
151.46458187424165
 20
-174.53559422386238
 10
150.39298129573302
 20
-172.94629336587082
 10
150.000081083624
 20
-171.000092315205
 10
150.39298129573302
 20
-169.0538912645392
 10
151.46458187424165
 20
-167.46459040654764
 10
153.0538827322332
 20
-166.39298982803902
 10
155.000083782899
 20
-166.00008961593
 10
157.29788502337783
 20
-166.55818991722307
 10
159.25098607776863
 20
-168.3662908933349
 10
159.9834864732124
 20
-170.58999209381048
 10
159.60718627006497
 20
-172.94629336587082
 10
157.95298537703684
 20
-175.0353944936819
 10
155.81108422072143
 20
-175.93469497917349
 10
153.41968292971217
 20
-175.74519487687098
 10
151.46458187424165
 20
-174.53559422386238
 10
150.25498122123304
 20
-172.58049316839185
 10
150.06548111893053
 20
-170.1890918773826
 10
150.96478160442211
 20
-168.04719072106718
 10
153.0538827322332
 20
-166.39298982803902
 10
155.41018400429354
 20
-166.0166896248916
 10
157.63388520476911
 20
-166.7491900203354
 10
159.44198618088095
 20
-168.7022910747262
 10
160.000086482174
 20
-171.000092315205
  0
LWPOLYLINE
  5
3C
330
17
100
AcDbEntity
  8
0
100
AcDbPolyline
 90
29
 70
0
 10
836.0004514241541
 20
-268.00014468114
 10
835.607551212045
 20
-269.94634573180576
 10
834.5359506335363
 20
-271.53564658979735
 10
832.9466497755449
 20
-272.607247168306
 10
831.0004487248791
 20
-273.000147380415
 10
829.0542476742133
 20
-272.607247168306
 10
827.4649468162218
 20
-271.53564658979735
 10
826.3933462377132
 20
-269.94634573180576
 10
826.0004460256041
 20
-268.00014468114
 10
826.3933462377132
 20
-266.05394363047424
 10
827.4649468162218
 20
-264.46464277248265
 10
829.0542476742133
 20
-263.39304219397405
 10
831.0004487248791
 20
-263.000141981865
 10
833.298249965358
 20
-263.5582422831581
 10
835.2513510197487
 20
-265.3663432592699
 10
835.9838514151925
 20
-267.59004445974546
 10
835.607551212045
 20
-269.94634573180576
 10
833.9533503190169
 20
-272.0354468596169
 10
831.8114491627015
 20
-272.93474734510846
 10
829.4200478716922
 20
-272.74524724280593
 10
827.4649468162218
 20
-271.53564658979735
 10
826.2553461632132
 20
-269.58054553432686
 10
826.0658460609105
 20
-267.1891442433176
 10
826.9651465464023
 20
-265.0472430870022
 10
829.0542476742133
 20
-263.39304219397405
 10
831.4105489462737
 20
-263.0167419908266
 10
833.6342501467491
 20
-263.7492423862704
 10
835.442351122861
 20
-265.7023434406612
 10
836.0004514241541
 20
-268.00014468114
  0
LWPOLYLINE
  5
3D
330
17
100
AcDbEntity
  8
0
100
AcDbPolyline
 90
29
 70
0
 10
856.0004622212541
 20
-289.000156018095
 10
855.607562009145
 20
-290.9463570687608
 10
854.5359614306363
 20
-292.5356579267524
 10
852.9466605726449
 20
-293.607258505261
 10
851.0004595219791
 20
-294.00015871737
 10
849.0542584713133
 20
-293.607258505261
 10
847.4649576133218
 20
-292.5356579267524
 10
846.3933570348132
 20
-290.9463570687608
 10
846.0004568227041
 20
-289.000156018095
 10
846.3933570348132
 20
-287.0539549674292
 10
847.4649576133218
 20
-285.4646541094376
 10
849.0542584713133
 20
-284.393053530929
 10
851.0004595219791
 20
-284.00015331882
 10
853.298260762458
 20
-284.55825362011313
 10
855.2513618168487
 20
-286.3663545962249
 10
855.9838622122925
 20
-288.5900557967005
 10
855.607562009145
 20
-290.9463570687608
 10
853.9533611161169
 20
-293.0354581965719
 10
851.8114599598015
 20
-293.9347586820635
 10
849.4200586687922
 20
-293.74525857976096
 10
847.4649576133218
 20
-292.5356579267524
 10
846.2553569603132
 20
-290.58055687128183
 10
846.0658568580105
 20
-288.18915558027265
 10
846.9651573435023
 20
-286.04725442395716
 10
849.0542584713133
 20
-284.393053530929
 10
851.4105597433737
 20
-284.0167533277816
 10
853.6342609438491
 20
-284.74925372322537
 10
855.4423619199611
 20
-286.7023547776162
 10
856.0004622212541
 20
-289.000156018095
  0
LWPOLYLINE
  5
3E
330
17
100
AcDbEntity
  8
0
100
AcDbPolyline
 90
29
 70
0
 10
148.000080003914
 20
-689.000371960095
 10
147.60717979180498
 20
-690.9465730107609
 10
146.53557921329636
 20
-692.5358738687523
 10
144.9462783553048
 20
-693.607474447261
 10
143.000077304639
 20
-694.00037465937
 10
141.0538762539732
 20
-693.607474447261
 10
139.46457539598163
 20
-692.5358738687523
 10
138.39297481747303
 20
-690.9465730107609
 10
138.000074605364
 20
-689.000371960095
 10
138.39297481747303
 20
-687.0541709094292
 10
139.46457539598163
 20
-685.4648700514377
 10
141.0538762539732
 20
-684.3932694729291
 10
143.000077304639
 20
-684.00036926082
 10
145.2978785451178
 20
-684.558469562113
 10
147.25097959950864
 20
-686.366570538225
 10
147.9834799949524
 20
-688.5902717387004
 10
147.60717979180498
 20
-690.9465730107609
 10
145.95297889877682
 20
-693.035674138572
 10
143.8110777424614
 20
-693.9349746240636
 10
141.41967645145218
 20
-693.7454745217609
 10
139.46457539598163
 20
-692.5358738687523
 10
138.25497474297305
 20
-690.5807728132819
 10
138.06547464067054
 20
-688.1893715222726
 10
138.96477512616212
 20
-686.0474703659572
 10
141.0538762539732
 20
-684.3932694729291
 10
143.41017752603355
 20
-684.0169692697816
 10
145.63387872650912
 20
-684.7494696652254
 10
147.44197970262093
 20
-686.7025707196161
 10
148.000080003914
 20
-689.000371960095
  0
LWPOLYLINE
  5
3F
330
17
100
AcDbEntity
  8
0
100
AcDbPolyline
 90
29
 70
0
 10
397.000214427809
 20
-739.000398952845
 10
396.6073142157
 20
-740.9466000035108
 10
395.5357136371914
 20
-742.5359008615023
 10
393.9464127791998
 20
-743.607501440011
 10
392.000211728534
 20
-744.00040165212
 10
390.05401067786823
 20
-743.607501440011
 10
388.46470981987665
 20
-742.5359008615023
 10
387.39310924136805
 20
-740.9466000035108
 10
387.000209029259
 20
-739.000398952845
 10
387.39310924136805
 20
-737.0541979021792
 10
388.46470981987665
 20
-735.4648970441878
 10
390.05401067786823
 20
-734.3932964656791
 10
392.000211728534
 20
-734.00039625357
 10
394.2980129690128
 20
-734.558496554863
 10
396.25111402340366
 20
-736.366597530975
 10
396.9836144188474
 20
-738.5902987314504
 10
396.6073142157
 20
-740.9466000035108
 10
394.95311332267187
 20
-743.035701131322
 10
392.81121216635637
 20
-743.9350016168136
 10
390.4198108753472
 20
-743.7455015145109
 10
388.46470981987665
 20
-742.5359008615023
 10
387.25510916686807
 20
-740.5807998060319
 10
387.06560906456554
 20
-738.1893985150226
 10
387.96490955005714
 20
-736.0474973587072
 10
390.05401067786823
 20
-734.3932964656791
 10
392.41031194992854
 20
-734.0169962625316
 10
394.63401315040414
 20
-734.7494966579754
 10
396.4421141265159
 20
-736.7025977123661
 10
397.000214427809
 20
-739.000398952845
  0
LWPOLYLINE
  5
40
330
17
100
AcDbEntity
  8
0
100
AcDbPolyline
 90
29
 70
0
 10
756.0004082357541
 20
-590.00031851445
 10
755.607508023645
 20
-591.9465195651158
 10
754.5359074451364
 20
-593.5358204231073
 10
752.9466065871449
 20
-594.607421001616
 10
751.0004055364791
 20
-595.000321213725
 10
749.0542044858133
 20
-594.607421001616
 10
747.4649036278217
 20
-593.5358204231073
 10
746.3933030493132
 20
-591.9465195651158
 10
746.0004028372041
 20
-590.00031851445
 10
746.3933030493132
 20
-588.0541174637842
 10
747.4649036278217
 20
-586.4648166057927
 10
749.0542044858133
 20
-585.3932160272841
 10
751.0004055364791
 20
-585.000315815175
 10
753.298206776958
 20
-585.558416116468
 10
755.2513078313488
 20
-587.36651709258
 10
755.9838082267925
 20
-589.5902182930554
 10
755.607508023645
 20
-591.9465195651158
 10
753.953307130617
 20
-594.035620692927
 10
751.8114059743016
 20
-594.9349211784186
 10
749.4200046832922
 20
-594.7454210761159
 10
747.4649036278217
 20
-593.5358204231073
 10
746.2553029748132
 20
-591.5807193676369
 10
746.0658028725105
 20
-589.1893180766276
 10
746.9651033580022
 20
-587.0474169203122
 10
749.0542044858133
 20
-585.3932160272841
 10
751.4105057578737
 20
-585.0169158241366
 10
753.6342069583492
 20
-585.7494162195804
 10
755.442307934461
 20
-587.7025172739711
 10
756.0004082357541
 20
-590.00031851445
  0
LWPOLYLINE
  5
41
330
17
100
AcDbEntity
  8
0
100
AcDbPolyline
 90
29
 70
0
 10
377.000203630709
 20
-401.00021648185503
 10
376.6073034186
 20
-402.9464175325208
 10
375.5357028400914
 20
-404.5357183905124
 10
373.9464019820998
 20
-405.607318969021
 10
372.000200931434
 20
-406.00021918113003
 10
370.05399988076823
 20
-405.607318969021
 10
368.46469902277664
 20
-404.5357183905124
 10
367.39309844426805
 20
-402.9464175325208
 10
367.000198232159
 20
-401.00021648185503
 10
367.39309844426805
 20
-399.0540154311892
 10
368.46469902277664
 20
-397.4647145731976
 10
370.05399988076823
 20
-396.39311399468903
 10
372.000200931434
 20
-396.00021378258003
 10
374.2980021719128
 20
-396.55831408387314
 10
376.25110322630366
 20
-398.3664150599849
 10
376.9836036217474
 20
-400.5901162604605
 10
376.6073034186
 20
-402.9464175325208
 10
374.95310252557186
 20
-405.0355186603319
 10
372.8112013692564
 20
-405.9348191458235
 10
370.4198000782472
 20
-405.74531904352096
 10
368.46469902277664
 20
-404.5357183905124
 10
367.25509836976806
 20
-402.58061733504184
 10
367.06559826746553
 20
-400.1892160440326
 10
367.96489875295714
 20
-398.04731488771716
 10
370.05399988076823
 20
-396.39311399468903
 10
372.41030115282854
 20
-396.0168137915416
 10
374.63400235330414
 20
-396.7493141869854
 10
376.4421033294159
 20
-398.7024152413762
 10
377.000203630709
 20
-401.00021648185503
  0
LWPOLYLINE
  5
42
330
17
100
AcDbEntity
  8
0
100
AcDbPolyline
 90
29
 70
0
 10
229.00012373216902
 20
-653.0003525253151
 10
228.60722352006
 20
-654.9465535759808
 10
227.53562294155137
 20
-656.5358544339723
 10
225.9463220835598
 20
-657.607455012481
 10
224.00012103289401
 20
-658.0003552245901
 10
222.0539199822282
 20
-657.607455012481
 10
220.46461912423663
 20
-656.5358544339723
 10
219.39301854572804
 20
-654.9465535759808
 10
219.000118333619
 20
-653.0003525253151
 10
219.39301854572804
 20
-651.0541514746493
 10
220.46461912423663
 20
-649.4648506166577
 10
222.0539199822282
 20
-648.3932500381491
 10
224.00012103289401
 20
-648.0003498260401
 10
226.29792227337282
 20
-648.5584501273331
 10
228.25102332776362
 20
-650.366551103445
 10
228.9835237232074
 20
-652.5902523039205
 10
228.60722352006
 20
-654.9465535759808
 10
226.95302262703183
 20
-657.0356547037919
 10
224.81112147071642
 20
-657.9349551892835
 10
222.41972017970716
 20
-657.745455086981
 10
220.46461912423663
 20
-656.5358544339723
 10
219.25501847122803
 20
-654.5807533785019
 10
219.06551836892552
 20
-652.1893520874926
 10
219.96481885441713
 20
-650.0474509311772
 10
222.0539199822282
 20
-648.3932500381491
 10
224.41022125428853
 20
-648.0169498350017
 10
226.6339224547641
 20
-648.7494502304454
 10
228.44202343087593
 20
-650.7025512848362
 10
229.00012373216902
 20
-653.0003525253151
  0
ENDSEC
  0
SECTION
  2
OBJECTS
  0
DICTIONARY
  5
A
330
0
100
AcDbDictionary
281
1
  3
ACAD_COLOR
350
B
  3
ACAD_GROUP
350
C
  3
ACAD_LAYOUT
350
D
  3
ACAD_MATERIAL
350
E
  3
ACAD_MLEADERSTYLE
350
F
  3
ACAD_MLINESTYLE
350
10
  3
ACAD_PLOTSETTINGS
350
11
  3
ACAD_PLOTSTYLENAME
350
12
  3
ACAD_SCALELIST
350
14
  3
ACAD_TABLESTYLE
350
15
  3
ACAD_VISUALSTYLE
350
16
  3
EZDXF_META
350
2D
  0
DICTIONARY
  5
B
330
A
100
AcDbDictionary
281
1
  0
DICTIONARY
  5
C
330
A
100
AcDbDictionary
281
1
  0
DICTIONARY
  5
D
330
A
100
AcDbDictionary
281
1
  3
Model
350
1A
  3
Layout1
350
1E
  0
DICTIONARY
  5
E
330
A
100
AcDbDictionary
281
1
  3
ByBlock
350
1F
  3
ByLayer
350
20
  3
Global
350
21
  0
DICTIONARY
  5
F
330
A
100
AcDbDictionary
281
1
  3
Standard
350
2C
  0
DICTIONARY
  5
10
330
A
100
AcDbDictionary
281
1
  3
Standard
350
22
  0
DICTIONARY
  5
11
330
A
100
AcDbDictionary
281
1
  0
ACDBDICTIONARYWDFLT
  5
12
330
A
100
AcDbDictionary
281
1
  3
Normal
350
13
100
AcDbDictionaryWithDefault
340
13
  0
ACDBPLACEHOLDER
  5
13
330
12
  0
DICTIONARY
  5
14
330
A
100
AcDbDictionary
281
1
  0
DICTIONARY
  5
15
330
A
100
AcDbDictionary
281
1
  0
DICTIONARY
  5
16
330
A
100
AcDbDictionary
281
1
  0
LAYOUT
  5
1A
330
D
100
AcDbPlotSettings
  1

  4
A3
  6

 40
7.5
 41
20.0
 42
7.5
 43
20.0
 44
420.0
 45
297.0
 46
0.0
 47
0.0
 48
0.0
 49
0.0
140
0.0
141
0.0
142
1.0
143
1.0
 70
1024
 72
1
 73
0
 74
5
  7

 75
16
 76
0
 77
2
 78
300
147
1.0
148
0.0
149
0.0
100
AcDbLayout
  1
Model
 70
1
 71
0
 10
0.0
 20
0.0
 11
420.0
 21
297.0
 12
0.0
 22
0.0
 32
0.0
 14
1e+20
 24
1e+20
 34
1e+20
 15
-1e+20
 25
-1e+20
 35
-1e+20
146
0.0
 13
0.0
 23
0.0
 33
0.0
 16
1.0
 26
0.0
 36
0.0
 17
0.0
 27
1.0
 37
0.0
 76
1
330
17
  0
LAYOUT
  5
1E
330
D
100
AcDbPlotSettings
  1

  4
A3
  6

 40
7.5
 41
20.0
 42
7.5
 43
20.0
 44
420.0
 45
297.0
 46
0.0
 47
0.0
 48
0.0
 49
0.0
140
0.0
141
0.0
142
1.0
143
1.0
 70
0
 72
1
 73
0
 74
5
  7

 75
16
 76
0
 77
2
 78
300
147
1.0
148
0.0
149
0.0
100
AcDbLayout
  1
Layout1
 70
1
 71
1
 10
0.0
 20
0.0
 11
420.0
 21
297.0
 12
0.0
 22
0.0
 32
0.0
 14
1e+20
 24
1e+20
 34
1e+20
 15
-1e+20
 25
-1e+20
 35
-1e+20
146
0.0
 13
0.0
 23
0.0
 33
0.0
 16
1.0
 26
0.0
 36
0.0
 17
0.0
 27
1.0
 37
0.0
 76
1
330
1B
  0
MATERIAL
  5
1F
102
{ACAD_REACTORS
330
E
102
}
330
E
100
AcDbMaterial
  1
ByBlock
  2

 70
0
 40
1.0
 71
1
 41
1.0
 91
-1023410177
 42
1.0
 72
1
  3

 73
1
 74
1
 75
1
 44
0.5
 73
0
 45
1.0
 46
1.0
 77
1
  4

 78
1
 79
1
170
1
 48
1.0
171
1
  6

172
1
173
1
174
1
140
1.0
141
1.0
175
1
  7

176
1
177
1
178
1
143
1.0
179
1
  8

270
1
271
1
272
1
145
1.0
146
1.0
273
1
  9

274
1
275
1
276
1
 42
1.0
 72
1
  3

 73
1
 74
1
 75
1
 94
63
  0
MATERIAL
  5
20
102
{ACAD_REACTORS
330
E
102
}
330
E
100
AcDbMaterial
  1
ByLayer
  2

 70
0
 40
1.0
 71
1
 41
1.0
 91
-1023410177
 42
1.0
 72
1
  3

 73
1
 74
1
 75
1
 44
0.5
 73
0
 45
1.0
 46
1.0
 77
1
  4

 78
1
 79
1
170
1
 48
1.0
171
1
  6

172
1
173
1
174
1
140
1.0
141
1.0
175
1
  7

176
1
177
1
178
1
143
1.0
179
1
  8

270
1
271
1
272
1
145
1.0
146
1.0
273
1
  9

274
1
275
1
276
1
 42
1.0
 72
1
  3

 73
1
 74
1
 75
1
 94
63
  0
MATERIAL
  5
21
102
{ACAD_REACTORS
330
E
102
}
330
E
100
AcDbMaterial
  1
Global
  2

 70
0
 40
1.0
 71
1
 41
1.0
 91
-1023410177
 42
1.0
 72
1
  3

 73
1
 74
1
 75
1
 44
0.5
 73
0
 45
1.0
 46
1.0
 77
1
  4

 78
1
 79
1
170
1
 48
1.0
171
1
  6

172
1
173
1
174
1
140
1.0
141
1.0
175
1
  7

176
1
177
1
178
1
143
1.0
179
1
  8

270
1
271
1
272
1
145
1.0
146
1.0
273
1
  9

274
1
275
1
276
1
 42
1.0
 72
1
  3

 73
1
 74
1
 75
1
 94
63
  0
MLINESTYLE
  5
22
102
{ACAD_REACTORS
330
10
102
}
330
10
100
AcDbMlineStyle
  2
Standard
 70
0
  3

 62
256
 51
90.0
 52
90.0
 71
2
 49
0.5
 62
256
  6
BYLAYER
 49
-0.5
 62
256
  6
BYLAYER
  0
MLEADERSTYLE
  5
2C
102
{ACAD_REACTORS
330
F
102
}
330
F
100
AcDbMLeaderStyle
179
2
170
2
171
1
172
0
 90
2
 40
0.0
 41
0.0
173
1
 91
-1056964608
 92
-2
290
1
 42
2.0
291
1
 43
8.0
  3
Standard
 44
4.0
300

342
29
174
1
175
1
176
0
178
1
 93
-1056964608
 45
4.0
292
0
297
0
 46
4.0
 94
-1056964608
 47
1.0
 49
1.0
140
1.0
294
1
141
0.0
177
0
142
1.0
295
0
296
0
143
3.75
271
0
272
9
273
9
  0
DICTIONARY
  5
2D
330
A
100
AcDbDictionary
280
1
281
1
  3
CREATED_BY_EZDXF
350
2E
  3
WRITTEN_BY_EZDXF
350
45
  0
DICTIONARYVAR
  5
2E
330
2D
100
DictionaryVariables
280
0
  1
1.4.3 @ 2025-11-15T14:52:01.721417+00:00
  0
DICTIONARYVAR
  5
45
330
2D
100
DictionaryVariables
280
0
  1
1.4.3 @ 2025-11-15T14:52:01.724793+00:00
  0
ENDSEC
  0
EOF
